<svg xmlns="http://www.w3.org/2000/svg" width="1925.726" height="1233.242" viewBox="0 0 1925.726 1233.242">
  <g id="Group_4" data-name="Group 4" transform="translate(-1766.57 -3852.54)">
    <g id="Group_3" data-name="Group 3">
      <g id="Group_2" data-name="Group 2">
        <g id="Group_1" data-name="Group 1">
          <g id="undraw_personal_file_222m" transform="translate(1456 3795)">
            <path id="Path_19" data-name="Path 19" d="M0,0H1925.726V1232.1H0Z" transform="translate(310.57 58.681)" fill="#fff"/>
            <path id="Path_20" data-name="Path 20" d="M0,0H867.033V1008.5H0Z" transform="translate(1314.502 281.144)" fill="#0f6283"/>
            <rect id="Rectangle_3" data-name="Rectangle 3" width="525.855" height="21.204" transform="translate(1607.763 374.98)" fill="#fff"/>
            <rect id="Rectangle_4" data-name="Rectangle 4" width="525.855" height="21.204" transform="translate(1607.763 421.631)" fill="#fff"/>
            <rect id="Rectangle_5" data-name="Rectangle 5" width="178.113" height="21.204" transform="translate(1607.763 468.279)" fill="#fff"/>
            <rect id="Rectangle_6" data-name="Rectangle 6" width="525.855" height="21.204" transform="translate(527.932 830.986)" fill="#0f6283"/>
            <rect id="Rectangle_7" data-name="Rectangle 7" width="525.855" height="21.204" transform="translate(527.932 877.636)" fill="#0f6283"/>
            <rect id="Rectangle_8" data-name="Rectangle 8" width="178.113" height="21.204" transform="translate(527.932 924.284)" fill="#0f6283"/>
            <rect id="Rectangle_9" data-name="Rectangle 9" width="525.855" height="21.204" transform="translate(1484.554 635.092)" fill="#fff"/>
            <rect id="Rectangle_10" data-name="Rectangle 10" width="525.855" height="21.204" transform="translate(1484.554 681.74)" fill="#fff"/>
            <rect id="Rectangle_11" data-name="Rectangle 11" width="525.855" height="21.204" transform="translate(1484.554 727.374)" fill="#fff"/>
            <rect id="Rectangle_12" data-name="Rectangle 12" width="525.855" height="21.204" transform="translate(1484.554 773.008)" fill="#fff"/>
            <rect id="Rectangle_13" data-name="Rectangle 13" width="525.855" height="21.204" transform="translate(1484.554 818.639)" fill="#fff"/>
            <rect id="Rectangle_14" data-name="Rectangle 14" width="525.855" height="21.204" transform="translate(1484.554 864.274)" fill="#fff"/>
            <rect id="Rectangle_15" data-name="Rectangle 15" width="525.855" height="21.204" transform="translate(1484.554 909.908)" fill="#fff"/>
            <rect id="Rectangle_16" data-name="Rectangle 16" width="525.855" height="21.204" transform="translate(1484.554 955.539)" fill="#fff"/>
            <rect id="Rectangle_17" data-name="Rectangle 17" width="525.855" height="21.204" transform="translate(1484.554 1001.173)" fill="#fff"/>
            <rect id="Rectangle_18" data-name="Rectangle 18" width="525.855" height="21.204" transform="translate(1484.554 1046.808)" fill="#fff"/>
            <rect id="Rectangle_19" data-name="Rectangle 19" width="525.855" height="21.204" transform="translate(1484.554 1092.439)" fill="#fff"/>
            <path id="Path_17" data-name="Path 17" d="M632.4,472.187a191.139,191.139,0,0,1-71.119,148.97,188.909,188.909,0,0,1-26.216,17.866,185.267,185.267,0,0,1-17.158,8.6,189.732,189.732,0,0,1-61.354,15.538q-7.8.65-15.766.639a189.365,189.365,0,0,1-31.35-2.578c-3.651-.57-7.256-1.278-10.815-2.1a184.34,184.34,0,0,1-18.413-5.111,191.176,191.176,0,0,1-67.241-39.108,174.405,174.405,0,0,1-14.26-14.192A191.6,191.6,0,1,1,632.4,472.187Z" transform="translate(350.076 21.645)" fill="#0f6283"/>
            <path id="Path_21" data-name="Path 21" d="M0,0H30V1232.1H0Z" transform="translate(1258.433 57.54)" fill="#0f6283"/>
          </g>
        </g>
      </g>
    </g>
  </g>
</svg>
